{"title":"Jonathan Strange &amp; Mr Norrell S01E06 x264 RB58.mp4","uid":12051569,"size":674710606,"categoryP":"video","categoryS":"tv_shows","magnet":"?xt=urn:btih:38b0cec6fc5b8dcec017732d45a5e1f849b51cef&amp;dn=Jonathan+Strange+%26amp%3B+Mr+Norrell+S01E06+x264+RB58.mp4&amp;tr=udp%3A%2F%2Ftracker.openbittorrent.com%3A80&amp;tr=udp%3A%2F%2Fopen.demonii.com%3A1337&amp;tr=udp%3A%2F%2Ftracker.coppersurfer.tk%3A6969&amp;tr=udp%3A%2F%2Fexodus.desync.com%3A6969","seeders":1,"leechers":0,"uploader":"RedBaron58","files":1,"time":1435006471,"description":"Jonathan Strange &amp; Mr Norrell S01E06 - The Black Tower x264 mp4\n &lt;a href=&quot;\nhttp://www.imdb.com/title/tt2548418/&quot; rel=&quot;nofollow&quot; target=&quot;_NEW&quot;&gt;\nhttp://www.imdb.com/title/tt2548418/&lt;/a&gt;\n\nTrailer:\n\n\nPlease be patient My intial upload speed is limited.\nThank you for your kind comments and feedback on my other torrents, your feedback is welcome.\n\n\nAbout the Episode:\nStrange is determined to learn the secrets of fairy magic so he can restore Arabella. \nBelieving madness is the key to accessing the fairy world, he seeks a way to drive himself insane. \nHowever, the Gentleman does not take kindly to the intrusion into his realm, and unleashes a terrible \ncurse to stop him. Norrell's determination to maintain control of all magic in England costs him \ndearly when the government turns against him, and Vinculus offers Stephen a means to escape from \nthe Gentleman's clutches.\n \nFantasy based on Susanna Clarke's novel, starring Eddie Marsan and Bertie Carvel\n\n\nI hope you enjoy.\n\n\nTechnical:\n\nGeneral\nComplete name                            : H:Jonathan Strange &amp; Mr Norrell S01E06 x264 RB58.mp4\nFormat                                   : MPEG-4\nFormat profile                           : Base Media\nCodec ID                                 : isom\nFile size                                : 643 MiB\nDuration                                 : 59mn 1s\nOverall bit rate mode                    : Constant\nOverall bit rate                         : 1 524 Kbps\nWriting application                      : Lavf54.63.104\n\nVideo\nID                                       : 1\nFormat                                   : AVC\nFormat/Info                              : Advanced Video Codec\nFormat profile                           : &lt;a class=&quot;__cf_email__&quot; href=&quot;/cdn-cgi/l/email-protection&quot; data-cfemail=&quot;fbb69a9295bbb7c8d5ca&quot;&gt;[email&amp;#160;protected]&lt;/a&gt;&lt;script data-cfhash='f9e31' type=&quot;text/javascript&quot;&gt;\n/* &lt;![CDATA[ */!function(){try{var t=&quot;currentScript&quot;in document?document.currentScript:function(){for(var t=document.getElementsByTagName(&quot;script&quot;),e=t.length;e--;)if(t[e].getAttribute(&quot;data-cfhash&quot;))return t[e]}();if(t&amp;&amp;t.previousSibling){var e,r,n,i,c=t.previousSibling,a=c.getAttribute(&quot;data-cfemail&quot;);if(a){for(e=&quot;&quot;,r=parseInt(a.substr(0,2),16),n=2;a.length-n;n+=2)i=parseInt(a.substr(n,2),16)^r,e+=String.fromCharCode(i);e=document.createTextNode(e),c.parentNode.replaceChild(e,c)}t.parentNode.removeChild(t);}}catch(u){}}()/* ]]&gt; */&lt;/script&gt;\nFormat settings, CABAC                   : Yes\nFormat settings, ReFrames                : 2 frames\nCodec ID                                 : avc1\nCodec ID/Info                            : Advanced Video Coding\nDuration                                 : 59mn 1s\nBit rate mode                            : Constant\nBit rate                                 : 1 404 Kbps\nWidth                                    : 832 pixels\nHeight                                   : 468 pixels\nDisplay aspect ratio                     : 16:9\nFrame rate mode                          : Constant\nFrame rate                               : 25.000 fps\nColor space                              : YUV\nChroma subsampling                       : 4:2:0\nBit depth                                : 8 bits\nScan type                                : Progressive\nBits/(Pixel*Frame)                       : 0.144\nStream size                              : 593 MiB (92%)\n\nAudio\nID                                       : 2\nFormat                                   : AAC\nFormat/Info                              : Advanced Audio Codec\nFormat profile                           : LC\nCodec ID                                 : 40\nDuration                                 : 59mn 1s\nBit rate mode                            : Constant\nBit rate                                 : 112 Kbps\nChannel(s)                               : 2 channels\nChannel positions                        : Front: L R\nSampling rate                            : 48.0 KHz\nCompression mode                         : Lossy\nStream size                              : 47.2 MiB (7%)\nLanguage                                 : English","torrent":{"xt":"urn:btih:38b0cec6fc5b8dcec017732d45a5e1f849b51cef","amp;dn":"Jonathan+Strange+%26amp%3B+Mr+Norrell+S01E06+x264+RB58.mp4","amp;tr":["udp%3A%2F%2Ftracker.openbittorrent.com%3A80","udp%3A%2F%2Fopen.demonii.com%3A1337","udp%3A%2F%2Ftracker.coppersurfer.tk%3A6969","udp%3A%2F%2Fexodus.desync.com%3A6969"],"infoHash":"38b0cec6fc5b8dcec017732d45a5e1f849b51cef","infoHashBuffer":{"type":"Buffer","data":[56,176,206,198,252,91,141,206,192,23,115,45,69,165,225,248,73,181,28,239]},"announce":[],"urlList":[]}}